<svg xmlns="http://www.w3.org/2000/svg" viewBox="0 0 1400 900">
<defs><radialGradient id="screen"><stop stop-color="#eafcff" stop-opacity=".95"/><stop offset=".2" stop-color="#78c6d4" stop-opacity=".5"/><stop offset="1" stop-color="#78c6d4" stop-opacity="0"/></radialGradient><radialGradient id="floor"><stop stop-color="#80648f" stop-opacity=".42"/><stop offset=".55" stop-color="#4c86a8" stop-opacity=".18"/><stop offset="1" stop-opacity="0"/><stop offset="1" stop-color="#000"/></radialGradient><linearGradient id="desk" x1="0" y1="0" x2="0" y2="1"><stop stop-color="#1b2027"/><stop offset="1" stop-color="#07090b"/></linearGradient><filter id="blur"><feGaussianBlur stdDeviation="24"/></filter></defs>
<rect width="1400" height="900" fill="#030405"/><ellipse cx="700" cy="720" rx="560" ry="210" fill="url(#floor)"/><path d="M420 650L555 280H845L980 650Z" fill="url(#screen)" opacity=".55" filter="url(#blur)"/><rect x="470" y="130" width="460" height="300" rx="8" fill="#eafcff" opacity=".92"/><rect x="495" y="155" width="410" height="250" fill="#0a1015"/><text x="700" y="235" fill="#78c6d4" font-family="Arial" font-size="18" text-anchor="middle" letter-spacing="4">JOIN THE ROOM</text><rect x="555" y="270" width="125" height="95" rx="6" fill="#fff"/><g fill="#07090b"><rect x="570" y="285" width="25" height="25"/><rect x="630" y="285" width="25" height="25"/><rect x="570" y="330" width="25" height="25"/><rect x="608" y="316" width="18" height="18"/><rect x="637" y="339" width="18" height="18"/></g><text x="760" y="315" fill="#f5f7f8" font-family="Arial" font-size="40" font-weight="700">K8M4Q2</text><text x="760" y="352" fill="#8f9ba5" font-family="Arial" font-size="16">184 people joined</text><g><ellipse cx="700" cy="630" rx="64" ry="110" fill="#050607"/><circle cx="700" cy="490" r="38" fill="#090b0d"/><path d="M575 610H825L865 820H535Z" fill="url(#desk)"/><rect x="650" y="540" width="100" height="70" rx="6" fill="#0e151a" stroke="#78c6d4" stroke-opacity=".25"/></g><g fill="#050607"><ellipse cx="260" cy="770" rx="38" ry="85"/><ellipse cx="360" cy="785" rx="42" ry="90"/><ellipse cx="1040" cy="785" rx="42" ry="90"/><ellipse cx="1145" cy="770" rx="38" ry="85"/></g>
</svg>
